<svg xmlns="http://www.w3.org/2000/svg" width="50" height="50" viewBox="0 0 50 50"><g transform="translate(-5136 -1984)"><rect width="50" height="50" transform="translate(5136 1984)" fill="none"/><g transform="translate(5138 1905.057)"><g transform="translate(0 88.943)"><path d="M42.3,92.64h-.893a3.794,3.794,0,0,0-1.04.145,3.814,3.814,0,0,0-3.739-3.09H35.74A3.813,3.813,0,0,0,31.932,93.5v6.147H14.18v-6.9a3.812,3.812,0,0,0-3.808-3.808H9.479a3.814,3.814,0,0,0-3.739,3.09,3.8,3.8,0,0,0-1.04-.145H3.808A3.812,3.812,0,0,0,0,95.7v15.833a3.813,3.813,0,0,0,3.808,3.808H4.7a3.8,3.8,0,0,0,1.04-.145,3.814,3.814,0,0,0,3.739,3.09h.892a3.812,3.812,0,0,0,3.808-3.808v-5.53H31.932v6.283a3.813,3.813,0,0,0,3.808,3.808h.892a3.814,3.814,0,0,0,3.739-3.09,3.794,3.794,0,0,0,1.04.145H42.3a3.813,3.813,0,0,0,3.808-3.808V96.449A3.812,3.812,0,0,0,42.3,92.64ZM5.671,111.529a.972.972,0,0,1-.971.971H3.808a.972.972,0,0,1-.971-.971V95.7a.972.972,0,0,1,.971-.971H4.7a.972.972,0,0,1,.971.971Zm5.671,2.945a.972.972,0,0,1-.971.971H9.479a.972.972,0,0,1-.971-.971V92.751a.972.972,0,0,1,.971-.971h.892a.972.972,0,0,1,.971.971Zm20.589-8.367H14.18v-3.618H31.932v3.618Zm5.671,9.12a.972.972,0,0,1-.971.971H35.74a.972.972,0,0,1-.971-.971V93.5a.972.972,0,0,1,.971-.971h.892a.972.972,0,0,1,.971.971Zm5.671-2.945a.972.972,0,0,1-.971.971h-.893a.972.972,0,0,1-.971-.971V96.449a.972.972,0,0,1,.971-.971H42.3a.972.972,0,0,1,.971.971Z" transform="translate(0 -88.943)" fill="#ef7a2e"/></g></g></g></svg>