<svg xmlns="http://www.w3.org/2000/svg" width="50" height="50" viewBox="0 0 50 50"><g transform="translate(-5222 -1984)"><rect width="50" height="50" transform="translate(5222 1984)" fill="none"/><g transform="translate(5221.232 1988)"><g transform="translate(4.768)"><path d="M90.543,7.971,91.6,5.711A13.53,13.53,0,0,0,92.875,0H90.25a10.894,10.894,0,0,1-1.024,4.594l-1.1,2.351-.07.181a16.032,16.032,0,0,0,.235,9.937H71.211a16.033,16.033,0,0,0,.235-9.936L70.274,4.594A10.893,10.893,0,0,1,69.25,0H66.625A13.53,13.53,0,0,0,67.9,5.711l1.059,2.26a13.426,13.426,0,0,1-.882,9.817A45.872,45.872,0,0,0,64,35.054V42h2.625V35.054a37.72,37.72,0,0,1,1.05-7.909l8.138,5.082V42h2.625V32.813h2.625V42h2.625V32.227l8.137-5.082a37.721,37.721,0,0,1,1.05,7.909V42H95.5V35.054a45.871,45.871,0,0,0-4.069-17.266A13.425,13.425,0,0,1,90.543,7.971ZM82,30.188H77.5l-9.132-5.708a36.172,36.172,0,0,1,1.713-4.792H89.419a36.168,36.168,0,0,1,1.706,4.792Z" transform="translate(-59.141)" fill="#ef7a2e"/><rect width="2.625" height="2.625" transform="translate(19.296 11.813)" fill="#ef7a2e"/><path d="M8.8,93.1h4.111V90.473H8.8l1.265-1.9L7.879,87.12,4.768,91.786l3.111,4.666,2.184-1.457Z" transform="translate(-4.768 -79.973)" fill="#ef7a2e"/><path d="M413.029,87.12l-2.184,1.457,1.265,1.9H408V93.1h4.111l-1.265,1.9,2.184,1.457,3.111-4.666Z" transform="translate(-374.922 -79.973)" fill="#ef7a2e"/></g></g></g></svg>