<svg xmlns="http://www.w3.org/2000/svg" width="50" height="50" viewBox="0 0 50 50"><g transform="translate(-5479 -1997)"><rect width="50" height="50" transform="translate(5479 1997)" fill="none"/><g transform="translate(5470.872 1998)"><path d="M51,30.683l-4.087,4.091-2.043-2.045,1.868-1.87a4.337,4.337,0,0,0-2.826-7.4,4.331,4.331,0,0,0-4.087-4.093,4.323,4.323,0,0,0-1.26-2.827h0a4.314,4.314,0,0,0-2.826-1.262,4.332,4.332,0,0,0-7.391-2.829l-1.868,1.87-4.087-4.091,4.087-4.091L20.345,0,10.128,10.227l6.13,6.137,4.087-4.091,4.087,4.091-2.044,2.045a2.886,2.886,0,0,0-4.087,0l-3.065,3.068c-3.059,3.062-2.73,7.451-2.533,10.074.016.215.031.418.043.6L10.22,34.681,24.524,49l3.58-3.583a9.177,9.177,0,0,0,6.546-2.461l8.174-8.182,2.043,2.045L40.78,40.91l6.13,6.137L57.128,36.819ZM16.258,12.273l-2.043-2.046,6.13-6.137,2.043,2.046Zm22.3,10.4A1.446,1.446,0,0,1,40.6,24.722L34.65,30.683a1.443,1.443,0,0,1-2.043,0h0a1.447,1.447,0,0,1,0-2.045Zm-2.044-4.091a1.449,1.449,0,0,1,0,2.045l-5.955,5.961a1.444,1.444,0,0,1-1.8.2,4.386,4.386,0,0,0-.418-2.065l6.131-6.137A1.446,1.446,0,0,1,36.518,18.585Zm-6.13-4.091a1.446,1.446,0,0,1,2.043,2.046L26.476,22.5l-2.043-2.045ZM32.606,40.91c-1.136,1.137-2.664,1.622-5.109,1.622h-.6l-2.375,2.377L14.307,34.681l1.353-1.354v-.6c0-2.027-.989-6.592,1.62-9.2l3.065-3.068,5.109,5.114a1.446,1.446,0,0,1-2.044,2.045l-3.065-3.068L18.3,26.592l3.065,3.068a4.336,4.336,0,0,0,6.3-.178A4.3,4.3,0,0,0,29.3,29.9a4.333,4.333,0,0,0,4.089,4.091,4.327,4.327,0,0,0,2.458,3.674Zm6.13-6.137a1.446,1.446,0,0,1-2.043-2.046l5.955-5.961a1.446,1.446,0,0,1,2.043,2.046Zm6.13,6.137L51,34.774l2.043,2.045-6.13,6.137Z" transform="translate(0 0)" fill="#ef7a2e"/></g></g></svg>