<svg xmlns="http://www.w3.org/2000/svg" width="50" height="50" viewBox="0 0 50 50"><g transform="translate(-5310 -1984)"><rect width="50" height="50" transform="translate(5310 1984)" fill="none"/><g transform="translate(5285.002 1986)"><path d="M64.095,17.278,65.9,13.014A9.348,9.348,0,0,0,57.133,0H43.695a9.527,9.527,0,0,0-8.771,13.248l1.8,4.062a20.367,20.367,0,0,0-3.753,25.742,6.808,6.808,0,0,0,5.786,3.223h23.3a6.829,6.829,0,0,0,5.806-3.255,20.421,20.421,0,0,0-3.777-25.742Zm-26.669-5.1a6.805,6.805,0,0,1,6.269-9.453H57.133A6.626,6.626,0,0,1,63.4,11.951l-1.519,3.581A20.249,20.249,0,0,0,59.6,14.19l1.366-3.078A4.083,4.083,0,0,0,57.2,5.444H43.625a4.083,4.083,0,0,0-3.763,5.668l1.372,3.09a20.355,20.355,0,0,0-2.3,1.364Zm6.313.961-1.372-3.091a1.361,1.361,0,0,1,1.259-1.879H57.2a1.36,1.36,0,0,1,1.259,1.879l-1.369,3.083a20.515,20.515,0,0,0-13.353.007ZM65.545,41.607a4.091,4.091,0,0,1-3.48,1.947h-23.3A4.07,4.07,0,0,1,35.3,41.634a17.694,17.694,0,1,1,30.246-.027Z" fill="#ef7a2e"/><path d="M132.252,192.421A12.249,12.249,0,1,0,144.5,204.67,12.263,12.263,0,0,0,132.252,192.421Zm0,21.777a9.527,9.527,0,1,1,9.527-9.527A9.538,9.538,0,0,1,132.252,214.2Z" transform="translate(-81.838 -174.962)" fill="#ef7a2e"/><path d="M214.086,252.421a4.08,4.08,0,0,0-3.04,6.805,4.083,4.083,0,1,0,6.08,0,4.08,4.08,0,0,0-3.04-6.805Zm0,2.722a1.361,1.361,0,1,1-1.361,1.361A1.363,1.363,0,0,1,214.086,255.143Zm0,8.166a1.361,1.361,0,1,1,1.361-1.361A1.363,1.363,0,0,1,214.086,263.309Z" transform="translate(-163.672 -229.517)" fill="#ef7a2e"/></g></g></svg>